<svg xmlns="http://www.w3.org/2000/svg" viewBox="0 0 44 44"><path data-name="Check Icon" class="cls-1" fill-rule="evenodd" d="M24.455,2.473Q26.91,7.53,32.008,4.818T35.98,7.573q-1.127,5.472,4.668,6.139t1.517,4.46q-4.278,3.791,0,7.586t-1.517,4.46q-5.795.668-4.668,6.138t-3.972,2.756q-5.1-2.714-7.553,2.344t-4.909,0Q17.09,36.4,11.992,39.111T8.02,36.355q1.127-5.47-4.668-6.138t-1.517-4.46q4.277-3.793,0-7.585t1.517-4.46q5.794-.67,4.668-6.139t3.972-2.755q5.1,2.71,7.553-2.345T24.455,2.473Zm7.559,14.582L18.919,29.994,15.96,26.943h0l-3.945-4.067,3.022-2.985,3.945,4.066,10.073-9.949Z"></path></svg>